<?xml version="1.0" encoding="utf-8"?>
<!-- Generator: Adobe Illustrator 21.0.0, SVG Export Plug-In . SVG Version: 6.00 Build 0)  -->
<svg version="1.1" id="viewability" xmlns="http://www.w3.org/2000/svg" xmlns:xlink="http://www.w3.org/1999/xlink" x="0px"
	 y="0px" viewBox="0 0 512 512" style="enable-background:new 0 0 512 512;" xml:space="preserve">
<style type="text/css">
	.st0{fill:#000000;}
</style>
<g>
	<path class="st0" d="M46.4,245.6H30.4c-1,0-1.4,0.5-1.4,1.6v50.7c0,1.1,0.4,1.6,1.4,1.6h4.8c1.1,0,1.4-0.5,1.4-1.6v-18.4h9.8
		c13.6,0,18-5.7,18-12.2v-9.4C64.4,251.3,60.1,245.6,46.4,245.6z M56.7,265.9c0,4.3-3.2,6.9-10.3,6.9h-9.8v-20.7h9.8
		c7.1,0,10.3,2.6,10.3,6.9V265.9z"/>
	<path class="st0" d="M102.3,292.8H82v-45.7c0-1.1-0.4-1.6-1.4-1.6h-4.8c-1.1,0-1.5,0.5-1.5,1.6v50.7c0,1,0.4,1.6,1.3,1.6h26.8
		c1,0,1.5-0.4,1.5-1.5v-3.6C103.8,293.2,103.3,292.8,102.3,292.8z"/>
	<path class="st0" d="M134.1,247.1c-0.3-1-0.9-1.5-1.9-1.5h-9.5c-1,0-1.6,0.5-1.9,1.5l-13.1,50.8c-0.3,1,0.1,1.5,1.1,1.5H141h5
		c1.1,0,1.5-0.6,1.2-1.5L134.1,247.1z"/>
	<path class="st0" d="M184.1,245.6h-4.8c-0.9,0-1.3,0.7-1.7,1.5L167,268c-0.6,1-1.3,3.4-1.3,3.6c-0.1-0.3-0.8-2.5-1.3-3.6l-9.9-20.9
		c-0.5-1-0.8-1.5-1.8-1.5h-5.5c-1.1,0-1.6,0.6-1.1,1.5l15.7,31.8v19c0,1,0.4,1.5,1.5,1.5h4.8c1,0,1.4-0.5,1.4-1.5V278l15.5-31
		C185.7,246,185.2,245.6,184.1,245.6z"/>
	<path class="st0" d="M208.6,244.9c-13.6,0-17.5,5.7-17.5,12.2v30.7c0,6.5,3.9,12.2,17.5,12.2c13.6,0,17.5-5.7,17.5-12.2v-13.9
		c0-1-0.5-1.4-1.5-1.4h-15.4c-1,0-1.5,0.4-1.5,1.4v3.6c0,1.1,0.5,1.5,1.5,1.5h9.4v7.6c0,4.3-2.9,6.8-9.9,6.8c-7.1,0-9.8-2.6-9.8-6.9
		v-28.2c0-4.3,2.7-6.9,9.8-6.9c7.1,0,9.9,2.6,9.9,6.9v2.2c0,1,0.4,1.5,1.5,1.5h4.6c1,0,1.4-0.5,1.4-1.5v-3.5
		C226.1,250.6,222.2,244.9,208.6,244.9z"/>
	<path class="st0" d="M263.6,277.1c6.8-1.9,9.3-6.3,9.3-11.1v-8.2c0-6.5-4.4-12.2-18-12.2h-16.1c-1,0-1.4,0.5-1.4,1.6v50.7
		c0,1.1,0.4,1.6,1.4,1.6h4.8c1.1,0,1.4-0.5,1.4-1.6v-19.7h9.8h1.3l8.9,19.7c0.5,1,0.6,1.6,1.7,1.6h4.8c1.1,0,1.8-0.6,1.4-1.6
		L263.6,277.1z M254.8,271.5H245v-19.4h9.8c7.1,0,10.3,2.6,10.3,6.9v5.6C265.1,269,262,271.5,254.8,271.5z"/>
	<path class="st0" d="M301.5,244.9c-13.5,0-18,5.7-18,12.2v30.7c0,6.5,4.4,12.2,18,12.2c13.6,0,18.1-5.7,18.1-12.2v-30.7
		C319.5,250.6,315.1,244.9,301.5,244.9z M311.8,286.6c0,4.3-3.2,6.9-10.3,6.9c-7,0-10.2-2.6-10.2-6.9v-28.2c0-4.3,3.2-6.9,10.2-6.9
		c7.1,0,10.3,2.6,10.3,6.9V286.6z"/>
	<path class="st0" d="M365.8,245.6h-4.8c-1,0-1.4,0.5-1.4,1.6v39.4c0,4.3-3.2,6.9-10.4,6.9c-7,0-10.2-2.6-10.2-6.9v-39.4
		c0-1.1-0.4-1.6-1.4-1.6h-4.8c-1,0-1.5,0.5-1.5,1.6v40.7c0,6.5,4.4,12.2,18,12.2c13.6,0,18.1-5.7,18.1-12.2v-40.7
		C367.2,246,366.9,245.6,365.8,245.6z"/>
	<path class="st0" d="M414.2,245.6h-4.4c-1,0-1.5,0.5-1.5,1.5v37.5c0,0-1.3-3.2-2.5-5.1l-19.1-33.3c-0.2-0.4-0.6-0.6-1.3-0.6h-4.4
		c-1,0-1.4,0.5-1.4,1.5v50.8c0,1,0.4,1.5,1.4,1.5h4.4c1,0,1.4-0.5,1.4-1.5v-37.5c0.2,0.3,1.1,2.8,2.9,5.7l18.6,32.6
		c0.3,0.5,0.6,0.7,1.4,0.7h4.4c1.1,0,1.4-0.5,1.4-1.5v-50.8C415.7,246,415.3,245.6,414.2,245.6z"/>
	<path class="st0" d="M446.6,245.6h-16.5c-1,0-1.4,0.5-1.4,1.6v50.7c0,1,0.3,1.6,1.3,1.6h16.7c13.5,0,18.1-5.7,18.1-12.2v-29.5
		C464.7,251.3,460.2,245.6,446.6,245.6z M456.9,286c0,4.3-3.2,6.9-10.3,6.9h-10.3v-40.7h10.3c7.1,0,10.3,2.6,10.3,6.9V286z"/>
	<path class="st0" d="M430.8,235.4h2.3c0.5,0,0.8-0.3,0.9-0.7l4.7-8.4l4.9,8.4c0.2,0.3,0.5,0.7,1,0.7h2.5c0.5,0,0.5-0.3,0.3-0.7
		l-6.6-11.3l6.3-10.8c0.2-0.4,0.1-0.7-0.3-0.7h-2.3c-0.4,0-0.7,0.3-0.9,0.7l-4.5,8l-4.7-8c-0.2-0.4-0.5-0.7-1-0.7H431
		c-0.5,0-0.5,0.3-0.3,0.7l6.3,10.7l-6.5,11.3C430.3,235.1,430.4,235.4,430.8,235.4z"/>
	<path class="st0" d="M465.8,212h-2.1c-0.4,0-0.6,0.3-0.8,0.7l-4.6,9.1c-0.2,0.4-0.6,1.5-0.6,1.6c0-0.1-0.3-1.1-0.6-1.6l-4.3-9.1
		c-0.2-0.4-0.3-0.7-0.8-0.7h-2.4c-0.5,0-0.7,0.2-0.5,0.7l6.8,13.9v8.3c0,0.4,0.2,0.7,0.7,0.7h2.1c0.4,0,0.6-0.2,0.6-0.7v-8.7
		l6.8-13.5C466.5,212.2,466.3,212,465.8,212z"/>
	<path class="st0" d="M482.4,232.6h-9.9l9.9-17.9c0.1-0.1,0.1-0.3,0.1-0.6v-1.5c0-0.5-0.2-0.7-0.7-0.7h-12.2c-0.4,0-0.7,0.2-0.7,0.7
		v1.6c0,0.5,0.2,0.7,0.7,0.7h8.7l-9.8,17.8c-0.1,0.2-0.2,0.3-0.2,0.6v1.6c0,0.5,0.2,0.7,0.7,0.7h13.3c0.4,0,0.7-0.2,0.7-0.7v-1.6
		C483.1,232.7,482.9,232.6,482.4,232.6z"/>
</g>
</svg>
